<svg width="1640" height="1012" viewBox="0 0 1640 1012" fill="none" xmlns="http://www.w3.org/2000/svg">
<path d="M1638.98 1010.97H1366L1299.07 949.074L1237.29 891.938L1180.07 839.022L1126.93 789.869L1077.45 744.109L1031.26 701.399L988.035 661.427L947.509 623.964L909.451 588.753M1639 1010.97V1.02854M1.1037 842.643V169.329M1.1037 842.643V1010.97H274.021L340.824 949.074L402.505 891.938L459.623 839.022L512.675 789.869L562.078 744.109L608.183 701.399L651.322 661.427L691.765 623.964L729.76 588.753H954.25L1011.33 623.964M1.1037 842.643L101.361 801.359L193.923 763.24L279.641 727.943L359.241 695.184L433.366 664.678L502.554 636.195L567.284 609.537L627.969 584.562L684.983 561.097V422.676L627.969 387.522M1.1037 1H1638.98M1366.02 1011H274.083M101.34 62.8686V949.103H1538.6L1445.93 891.967M1445.93 891.967H193.902V119.919M1445.93 891.967V119.919L1538.6 62.8401H101.361L1.1037 1.02854V169.357L101.361 210.555L193.923 248.589L279.641 283.8L359.241 316.502L433.366 346.951L502.554 375.377L567.284 401.978L627.969 426.925L684.983 450.36M193.902 119.919L101.34 62.8401M193.902 119.919H1237.27L1299.05 62.8401L1365.98 1.02854M1360.13 839.05H279.621V172.778M1280.45 789.898H359.22V221.846M1638.98 1.05708L1538.62 62.8686V210.584L1445.95 248.617L1360.15 283.828L1280.47 316.53L1206.26 346.98L1136.99 375.405L1072.18 402.006L1011.41 426.953L954.333 450.389V561.126L1011.41 584.59L1072.18 609.566L1136.99 636.224L1206.26 664.706L1280.47 695.213L1360.15 727.972L1445.95 763.268L1538.62 801.387V949.103L1638.98 1011M1206.22 744.109H433.324V267.52M1445.93 119.89L1360.13 172.721M1360.13 172.721V838.993L1445.93 891.91M1360.13 172.721H279.621L193.902 119.89M1638.98 169.329L1538.62 210.527V801.359L1638.98 842.643M274.083 1.02854L340.886 62.8401L402.567 119.919L459.685 172.75L512.738 221.817L562.14 267.52L608.245 310.172L651.384 350.088L691.827 387.494L729.823 422.648H909.41L947.468 387.494L987.994 350.088L1031.22 310.172L1077.4 267.52L1126.89 221.817L1180.02 172.75L1237.25 119.919H1445.91M1360.11 172.75L1280.43 221.817V789.869L1360.11 839.022M279.579 172.75L359.179 221.817H1280.41M1092.98 1010.97L1059.48 949.074L1028.56 891.938L999.919 839.022L973.331 789.869L948.567 744.109L925.442 701.399L903.81 661.427L883.526 623.964L864.466 588.753M547 1010.97L580.371 949.074L611.19 891.938L639.728 839.022L666.234 789.869L690.915 744.109L713.957 701.399L735.505 661.427L755.706 623.964L774.683 588.753M502.513 310.172V701.399H1136.91L1072.09 661.427M684.941 533.385L627.927 545.131L567.242 557.648L502.513 570.99L433.324 585.246L359.2 600.528L279.6 616.922L193.882 634.599L101.319 653.672L1.06222 674.343M684.9 478.045L627.886 466.355L567.201 453.896L502.471 440.61L433.283 426.412L359.158 411.186L279.558 394.85L193.84 377.259L101.278 358.27L1.02074 337.685M1280.36 221.817L1206.16 267.52V744.109L1280.36 789.869M359.138 221.817L433.262 267.52H1206.18M819.979 1010.97L819.917 949.074L819.855 891.938L819.813 839.022L819.772 789.869L819.73 744.109L819.689 701.399L819.647 661.427L819.606 623.964L819.564 588.753M684.879 505.701H627.865L567.18 505.758H502.451L433.262 505.814H359.138L279.538 505.871H193.819L101.257 505.957L1 506.014M1206.14 267.52L1136.86 310.172M1136.86 310.172V701.399L1206.14 744.109M1136.86 310.172H502.409M433.221 267.52L502.409 310.172M502.409 310.172L567.139 350.088H1072.07L1136.89 310.172M1072.09 661.427V350.088L1011.33 387.494H627.844L567.159 350.088V661.427H1072.09ZM627.927 623.964L684.941 588.753V561.069M1011.45 387.522V623.993M1011.45 623.993L1072.22 661.456M1011.45 623.993H627.969L567.284 661.456L502.554 701.428L433.366 744.137L359.241 789.898L279.641 839.05L193.923 891.967L101.361 949.103L1.1037 1011M627.927 387.522V623.993M1638.96 674.343L1538.6 653.672L1445.93 634.599L1360.13 616.922L1280.45 600.528L1206.24 585.246L1136.97 570.99L1072.16 557.648L1011.39 545.131L954.312 533.385M1638.96 337.657L1538.6 358.242L1445.93 377.23L1360.13 394.821L1280.45 411.158L1206.24 426.383L1136.97 440.581L1072.16 453.867L1011.39 466.327L954.312 478.016M864.529 422.648L883.589 387.494L903.872 350.088L925.504 310.172L948.629 267.52L973.393 221.817L999.981 172.75L1028.62 119.919L1059.55 62.8401L1093.04 1.02854M774.766 422.648L755.789 387.494L735.588 350.088L714.04 310.172L690.998 267.52L666.317 221.817L639.811 172.75L611.273 119.919L580.454 62.8401L547.083 1.02854M1639 506.014L1538.64 505.957H1445.97L1360.17 505.871H1280.49L1206.28 505.814H1137.01L1072.2 505.758H1011.43L954.353 505.701M819.668 422.648L819.71 387.494L819.751 350.088L819.793 310.172L819.834 267.52L819.876 221.817L819.917 172.75L819.959 119.919L820.021 62.8401L820.083 1.02854M954.374 422.648V450.332M685.004 422.648H729.906M909.493 422.648H954.395L1011.47 387.494M954.395 561.069V588.753M729.906 588.753H685.004" stroke="#E6E6E6" strokeWidth="1.08501" strokeLinecap="round" strokeLinejoin="round"/>
</svg>
